<svg height="300px" width="300px" fill="#000000" xmlns="http://www.w3.org/2000/svg" xmlns:xlink="http://www.w3.org/1999/xlink" version="1.1" x="0px" y="0px" viewBox="0 0 100 100" enable-background="new 0 0 100 100" xml:space="preserve"><path d="M12,23.6c0-2.1,1.5-3.6,3.6-3.6h61.6c2.1,0,3.8,1.5,3.8,3.6V38h4V23.6c0-4.2-3.6-7.6-7.8-7.6H15.6C11.4,16,8,19.3,8,23.6V51  h4V23.6z"/><path d="M64,74v-4H25v4h19v4h-8.6c-1.1,0-1.9,0.9-1.9,2s0.9,2,1.9,2h20.8c1.1,0,1.9-0.9,1.9-2s-0.9-2-1.9-2H48v-4H64z"/><g><path d="M96,42.1c0-1.7-1.4-3.1-3.1-3.1H68.1c-1.7,0-3.1,1.4-3.1,3.1v38.8c0,1.7,1.4,3.1,3.1,3.1h24.8c1.7,0,3.1-1.4,3.1-3.1V42.1z    M80.6,82.1c-0.4,0-0.8-0.3-0.8-0.8c0-0.4,0.3-0.8,0.8-0.8c0.4,0,0.8,0.3,0.8,0.8C81.4,81.7,81,82.1,80.6,82.1z M68,78V43h24.7   l0,35H68z"/></g><path d="M24,53.9c0-1.1-0.9-1.9-1.9-1.9H5.9C4.9,52,4,52.9,4,53.9v28.2C4,83.1,4.9,84,5.9,84h16.2c1.1,0,1.9-0.9,1.9-1.9V53.9z   M13.8,82.3c-0.4,0-0.8-0.3-0.8-0.8c0-0.4,0.3-0.8,0.8-0.8s0.8,0.3,0.8,0.8C14.6,82,14.3,82.3,13.8,82.3z M22,79H6V55h16V79z"/></svg>