<?xml version="1.0" encoding="UTF-8" standalone="no"?>
<svg
   xmlns:dc="http://purl.org/dc/elements/1.1/"
   xmlns:cc="http://creativecommons.org/ns#"
   xmlns:rdf="http://www.w3.org/1999/02/22-rdf-syntax-ns#"
   xmlns:svg="http://www.w3.org/2000/svg"
   xmlns="http://www.w3.org/2000/svg"
   xmlns:sodipodi="http://sodipodi.sourceforge.net/DTD/sodipodi-0.dtd"
   xmlns:inkscape="http://www.inkscape.org/namespaces/inkscape"
   width="309.91733"
   height="210"
   viewBox="0 0 81.99896 55.562498"
   version="1.1"
   id="svg1531"
   sodipodi:docname="freedom.svg"
   inkscape:version="0.92.4 (5da689c313, 2019-01-14)">
  <title
     id="title833">Free Software Logo</title>
  <sodipodi:namedview
     pagecolor="#ffffff"
     bordercolor="#666666"
     borderopacity="1"
     objecttolerance="10"
     gridtolerance="10"
     guidetolerance="10"
     inkscape:pageopacity="0"
     inkscape:pageshadow="2"
     inkscape:window-width="1683"
     inkscape:window-height="1063"
     id="namedview8"
     showgrid="false"
     inkscape:zoom="1.9275"
     inkscape:cx="74.099652"
     inkscape:cy="85.259484"
     inkscape:current-layer="svg1531"
     inkscape:window-x="1075"
     inkscape:window-y="21"
     inkscape:window-maximized="0"
     fit-margin-top="0"
     fit-margin-left="0"
     fit-margin-right="0"
     fit-margin-bottom="0" />
  <defs
     id="defs1525" />
  <metadata
     id="metadata1528">
    <rdf:RDF>
      <cc:Work
         rdf:about="">
        <dc:format>image/svg+xml</dc:format>
        <dc:type
           rdf:resource="http://purl.org/dc/dcmitype/StillImage" />
        <dc:title>Free Software Logo</dc:title>
        <dc:creator>
          <cc:Agent>
            <dc:title>Robert Martinez</dc:title>
          </cc:Agent>
        </dc:creator>
        <cc:license
           rdf:resource="http://creativecommons.org/publicdomain/zero/1.0/" />
      </cc:Work>
      <cc:License
         rdf:about="http://creativecommons.org/publicdomain/zero/1.0/">
        <cc:permits
           rdf:resource="http://creativecommons.org/ns#Reproduction" />
        <cc:permits
           rdf:resource="http://creativecommons.org/ns#Distribution" />
        <cc:permits
           rdf:resource="http://creativecommons.org/ns#DerivativeWorks" />
      </cc:License>
    </rdf:RDF>
  </metadata>
  <path
     id="path1521"
     style="display:inline;opacity:1;vector-effect:none;fill:none;fill-opacity:1;fill-rule:evenodd;stroke:#000000;stroke-width:2.64583325;stroke-linecap:round;stroke-linejoin:bevel;stroke-miterlimit:4;stroke-dasharray:none;stroke-dashoffset:0;stroke-opacity:1;marker:none;marker-start:none;marker-mid:none;marker-end:none;paint-order:fill markers stroke"
     d="m 1.8702243,21.166664 c -0.3590262,2.15047 -0.5473077,4.359463 -0.5473077,6.614592 0,2.255106 0.1901282,4.464113 0.5473077,6.614573 H 15.37938 c -0.539924,-2.112793 -0.827883,-4.328912 -0.827883,-6.614573 0,-2.28567 0.287947,-4.501797 0.827883,-6.614592 z M 41.009579,1.3229166 c -12.372092,0 -22.708156,8.4072576 -25.630199,19.8437474 h 14.193052 c 2.359652,-4.087044 6.717844,-6.607565 11.437147,-6.614574 7.306397,-1.85e-4 13.229498,5.922769 13.229496,13.229166 2e-6,7.306397 -5.923099,13.229351 -13.229496,13.229165 -4.720954,-0.0054 -9.081283,-2.526118 -11.441755,-6.614592 H 15.37938 c 2.922043,11.436516 13.258107,19.843753 25.630199,19.843753 12.373006,0 22.709072,-8.407244 25.632037,-19.843753 h 13.509155 c 0.712511,-4.519851 0.687596,-9.016625 0,-13.229165 H 66.641616 C 63.718651,9.7301742 53.382585,1.3229166 41.009579,1.3229166 Z"
     inkscape:connector-curvature="0" />
  <path
     style="opacity:1;fill:none;fill-opacity:0.02745098;stroke:#000000;stroke-width:5.18806744;stroke-linecap:butt;stroke-linejoin:miter;stroke-miterlimit:4;stroke-dasharray:none;stroke-dashoffset:0;stroke-opacity:1"
     d="m 146.66272,148.97452 c -4.38085,-0.85925 -10.2141,-3.09115 -14.24314,-5.44966 -4.78583,-2.80151 -11.16073,-8.74755 -14.06571,-13.11945 -1.42262,-2.141 -2.83149,-3.53913 -4.48007,-4.4459 l -2.40484,-1.32276 H 86.837328 62.205695 L 61.548236,120.616 c -1.460908,-8.93432 -1.460908,-22.453481 0,-31.387806 l 0.657459,-4.020752 h 24.868862 24.868863 l 2.20795,-1.293942 c 1.27185,-0.745359 2.92025,-2.393221 3.88805,-3.886803 4.14754,-6.40073 10.29674,-11.649788 17.92625,-15.302126 5.89968,-2.82425 10.04442,-3.884959 16.62944,-4.255763 13.10564,-0.737983 24.05394,3.44516 33.51661,12.806079 9.36221,9.261528 13.44023,18.981439 13.43177,32.014443 -0.011,17.02734 -9.66912,32.35907 -25.1004,39.84573 -6.57899,3.19186 -12.05308,4.41047 -19.51335,4.34394 -3.28145,-0.0293 -7.00161,-0.25628 -8.26702,-0.50448 z"
     id="path834"
     inkscape:connector-curvature="0"
     transform="scale(0.26458333)" />
</svg>
