<?xml version="1.0" encoding="UTF-8" standalone="no"?>
<!-- Created with Inkscape (http://www.inkscape.org/) -->

<svg
   xmlns:dc="http://purl.org/dc/elements/1.1/"
   xmlns:cc="http://creativecommons.org/ns#"
   xmlns:rdf="http://www.w3.org/1999/02/22-rdf-syntax-ns#"
   xmlns:svg="http://www.w3.org/2000/svg"
   xmlns="http://www.w3.org/2000/svg"
   xmlns:sodipodi="http://sodipodi.sourceforge.net/DTD/sodipodi-0.dtd"
   xmlns:inkscape="http://www.inkscape.org/namespaces/inkscape"
   width="45.667915mm"
   height="44.459473mm"
   viewBox="0 0 45.667915 44.459473"
   version="1.1"
   id="svg2016"
   inkscape:version="0.92.4 (5da689c313, 2019-01-14)"
   sodipodi:docname="jmp.svg">
  <defs
     id="defs2010" />
  <sodipodi:namedview
     id="base"
     pagecolor="#ffffff"
     bordercolor="#666666"
     borderopacity="1.0"
     inkscape:pageopacity="0.0"
     inkscape:pageshadow="2"
     inkscape:zoom="2.8"
     inkscape:cx="31.031452"
     inkscape:cy="111.44645"
     inkscape:document-units="mm"
     inkscape:current-layer="layer1"
     showgrid="false"
     fit-margin-top="0"
     fit-margin-left="0"
     fit-margin-right="0"
     fit-margin-bottom="0"
     inkscape:window-width="1683"
     inkscape:window-height="1063"
     inkscape:window-x="0"
     inkscape:window-y="21"
     inkscape:window-maximized="0" />
  <metadata
     id="metadata2013">
    <rdf:RDF>
      <cc:Work
         rdf:about="">
        <dc:format>image/svg+xml</dc:format>
        <dc:type
           rdf:resource="http://purl.org/dc/dcmitype/StillImage" />
        <dc:title></dc:title>
      </cc:Work>
    </rdf:RDF>
  </metadata>
  <g
     inkscape:label="Layer 1"
     inkscape:groupmode="layer"
     id="layer1"
     transform="translate(-86.779101,-220.3417)">
    <g
       transform="matrix(0.28222154,0,0,0.28222154,-3272.7281,-535.92651)"
       id="g2582">
      <g
         style="fill:#0000aa"
         transform="matrix(0.45943,0,0,0.45943,13550.024,2584.3193)"
         id="g3698">
        <rect
           x="-3583.2"
           y="207.60001"
           width="352.20999"
           height="246.55"
           ry="19.6"
           id="rect3700"
           rx="19.6" />
        <path
           style="fill-rule:evenodd"
           inkscape:connector-curvature="0"
           d="m -3312.6,451.77 c -63.567,81.368 -127.41,93.7 -206.33,98.72 62.251,-22.615 67.442,-81.185 21.839,-98.682 z"
           id="path3702" />
      </g>
      <g
         style="fill:#ffffff"
         id="text3704"
         transform="translate(15403.124,569.61926)">
        <path
           inkscape:connector-curvature="0"
           d="m -3448.9,2134.2 v 21.536 q 0,2.8042 -0.2524,4.767 -0.2243,1.9629 -1.0655,3.9819 -1.4021,3.393 -4.6269,5.2998 -3.2247,1.8788 -7.8515,1.8788 -4.1782,0 -6.9823,-1.318 -2.7761,-1.3179 -4.4866,-4.2622 -0.8973,-1.5704 -1.4582,-3.6174 -0.5608,-2.047 -0.5608,-3.8977 0,-1.9629 1.0936,-3.0004 1.0936,-1.0376 2.8042,-1.0376 1.6544,0 2.4956,0.9534 0.8413,0.9535 1.2899,2.9724 0.4767,2.1592 0.9534,3.4491 0.4767,1.2899 1.5984,2.2153 1.1216,0.9253 3.1967,0.9253 5.5241,0 5.5241,-8.1039 v -22.742 q 0,-2.5237 1.0936,-3.7856 1.1217,-1.2618 3.0285,-1.2618 1.9349,0 3.0565,1.2618 1.1497,1.2619 1.1497,3.7856 z"
           id="path3777" />
        <path
           inkscape:connector-curvature="0"
           d="m -3426,2164.8 -6.5897,-26.191 v 28.378 q 0,2.3555 -1.0656,3.5332 -1.0375,1.1778 -2.776,1.1778 -1.6825,0 -2.7481,-1.1497 -1.0656,-1.1778 -1.0656,-3.5613 v -32.528 q 0,-2.6919 1.4021,-3.6173 1.4021,-0.9534 3.7856,-0.9534 h 2.5798 q 2.3274,0 3.3649,0.4206 1.0656,0.4206 1.5703,1.5143 0.5048,1.0936 1.1497,3.5612 l 5.9728,22.517 5.9728,-22.517 q 0.645,-2.4676 1.1497,-3.5612 0.5048,-1.0937 1.5423,-1.5143 1.0656,-0.4206 3.393,-0.4206 h 2.5798 q 2.3835,0 3.7856,0.9534 1.402,0.9254 1.402,3.6173 v 32.528 q 0,2.3555 -1.0655,3.5332 -1.0376,1.1778 -2.8042,1.1778 -1.6544,0 -2.72,-1.1778 -1.0655,-1.1777 -1.0655,-3.5332 v -28.378 l -6.5897,26.191 q -0.645,2.5518 -1.0656,3.7576 -0.3926,1.1777 -1.4862,2.1591 -1.0936,0.9815 -3.0285,0.9815 -1.4581,0 -2.4676,-0.645 -1.0095,-0.6169 -1.5703,-1.5983 -0.5608,-0.9815 -0.8973,-2.1592 -0.3085,-1.2058 -0.645,-2.4957 z"
           id="path3779" />
        <path
           inkscape:connector-curvature="0"
           d="m -3376,2155 h -7.6272 v 11.637 q 0,2.4957 -1.1778,3.7856 -1.1777,1.2899 -2.9723,1.2899 -1.8788,0 -3.0285,-1.2619 -1.1497,-1.2899 -1.1497,-3.7575 v -31.687 q 0,-2.748 1.2619,-3.9258 1.2618,-1.1777 4.0099,-1.1777 h 10.684 q 4.739,0 7.2907,0.7291 2.5238,0.701 4.3464,2.3274 1.8508,1.6264 2.8042,3.9819 0.9534,2.3554 0.9534,5.2998 0,6.2812 -3.8697,9.534 -3.8697,3.2248 -11.525,3.2248 z m -2.019,-18.844 h -5.6082 v 12.562 h 5.6082 q 2.9444,0 4.9073,-0.6169 1.9909,-0.6169 3.0284,-2.019 1.0375,-1.402 1.0375,-3.6734 0,-2.72 -1.5983,-4.4305 -1.7947,-1.8227 -7.3749,-1.8227 z"
           id="path3781" />
      </g>
      <g
         style="fill:#ffffff"
         transform="matrix(0.45943,0,0,0.45943,11840.124,2540.3193)"
         id="g3708">
        <path
           inkscape:connector-curvature="0"
           d="M 264.16,488.05 A 18.785,18.385 0 0 1 245.375,506.435 18.785,18.385 0 0 1 226.59,488.05 18.785,18.385 0 0 1 245.375,469.665 18.785,18.385 0 0 1 264.16,488.05 Z"
           id="ellipse3710" />
        <path
           inkscape:connector-curvature="0"
           d="M 333.43,488.05 A 18.785,18.385 0 0 1 314.645,506.435 18.785,18.385 0 0 1 295.86,488.05 18.785,18.385 0 0 1 314.645,469.665 18.785,18.385 0 0 1 333.43,488.05 Z"
           id="ellipse3712" />
        <path
           inkscape:connector-curvature="0"
           d="M 402.7,488.05 A 18.785,18.385 0 0 1 383.915,506.435 18.785,18.385 0 0 1 365.13,488.05 18.785,18.385 0 0 1 383.915,469.665 18.785,18.385 0 0 1 402.7,488.05 Z"
           id="ellipse3714" />
      </g>
    </g>
  </g>
</svg>
