<?xml version="1.0" encoding="UTF-8" standalone="no"?>
<!-- Generator: Adobe Illustrator 18.1.1, SVG Export Plug-In . SVG Version: 6.00 Build 0)  -->

<svg
   xmlns:dc="http://purl.org/dc/elements/1.1/"
   xmlns:cc="http://creativecommons.org/ns#"
   xmlns:rdf="http://www.w3.org/1999/02/22-rdf-syntax-ns#"
   xmlns:svg="http://www.w3.org/2000/svg"
   xmlns="http://www.w3.org/2000/svg"
   xmlns:xlink="http://www.w3.org/1999/xlink"
   xmlns:sodipodi="http://sodipodi.sourceforge.net/DTD/sodipodi-0.dtd"
   xmlns:inkscape="http://www.inkscape.org/namespaces/inkscape"
   version="1.1"
   x="0px"
   y="0px"
   viewBox="0 0 869 317"
   enable-background="new 0 0 864 312"
   xml:space="preserve"
   id="svg58"
   sodipodi:docname="t.svg"
   width="869"
   height="317"
   inkscape:version="0.92.4 (5da689c313, 2019-01-14)"><metadata
   id="metadata64"><rdf:RDF><cc:Work
       rdf:about=""><dc:format>image/svg+xml</dc:format><dc:type
         rdf:resource="http://purl.org/dc/dcmitype/StillImage" /><dc:title></dc:title></cc:Work></rdf:RDF></metadata><defs
   id="defs62">
	
	
	
</defs><sodipodi:namedview
   pagecolor="#ffffff"
   bordercolor="#666666"
   borderopacity="1"
   objecttolerance="10"
   gridtolerance="10"
   guidetolerance="10"
   inkscape:pageopacity="0"
   inkscape:pageshadow="2"
   inkscape:window-width="1683"
   inkscape:window-height="1063"
   id="namedview60"
   showgrid="false"
   fit-margin-top="0"
   fit-margin-left="0"
   fit-margin-right="0"
   fit-margin-bottom="0"
   inkscape:zoom="0.82407407"
   inkscape:cx="336.51961"
   inkscape:cy="204.73259"
   inkscape:window-x="1075"
   inkscape:window-y="21"
   inkscape:window-maximized="0"
   inkscape:current-layer="svg58" />

<rect
   style="opacity:1;fill:#000013;fill-opacity:1;stroke:#888888;stroke-width:5;stroke-linecap:butt;stroke-linejoin:miter;stroke-miterlimit:4;stroke-dasharray:none;stroke-dashoffset:0;stroke-opacity:1"
   id="rect1288"
   width="864"
   height="312"
   x="2.5"
   y="2.5"
   ry="52.179775"
   rx="52.179775" /><g
   id="g12"
   transform="translate(2.5,2.5)">
		<defs
   id="defs7">
			<rect
   x="0"
   height="312"
   width="864"
   y="0"
   id="SVGID_1_" />
		</defs>
		<clipPath
   id="SVGID_2_">
			<use
   height="100%"
   width="100%"
   y="0"
   x="0"
   style="overflow:visible"
   id="use9"
   overflow="visible"
   xlink:href="#SVGID_1_" />
		</clipPath>
	</g><g
   id="Layer_1"
   transform="translate(2.5,2.5)">
	<rect
   style="fill:#f25022"
   x="70.5"
   y="68.599998"
   width="83.800003"
   height="83.800003"
   id="rect15" />
	<rect
   style="fill:#7fba00"
   x="163"
   y="68.599998"
   width="83.800003"
   height="83.800003"
   id="rect17" />
	<rect
   style="fill:#00a4ef"
   x="70.5"
   y="161"
   width="83.800003"
   height="83.800003"
   id="rect19" />
	<rect
   style="fill:#ffb900"
   x="163"
   y="161"
   width="83.800003"
   height="83.800003"
   id="rect21" />
	<path
   style="fill:#ffffff"
   inkscape:connector-curvature="0"
   d="m 408.3,163 c 0,-2.5 0.9,-4.5 2.7,-6.2 1.8,-1.7 3.9,-2.5 6.4,-2.5 2.6,0 4.8,0.9 6.5,2.6 1.7,1.7 2.6,3.8 2.6,6.1 0,2.4 -0.9,4.5 -2.7,6.1 -1.8,1.7 -3.9,2.5 -6.5,2.5 -2.6,0 -4.7,-0.8 -6.5,-2.5 -1.6,-1.7 -2.5,-3.7 -2.5,-6.1 m 16.5,81.8 h -14.9 v -63.5 h 14.9 z"
   id="path23" />
	<path
   style="fill:#ffffff"
   inkscape:connector-curvature="0"
   d="m 470.2,233.9 c 2.2,0 4.7,-0.5 7.4,-1.5 2.7,-1 5.1,-2.4 7.4,-4.1 v 13.9 c -2.4,1.4 -5.1,2.4 -8.1,3.1 -3,0.7 -6.4,1.1 -10,1.1 -9.3,0 -16.9,-3 -22.8,-8.9 -5.9,-5.9 -8.8,-13.5 -8.8,-22.6 0,-10.2 3,-18.6 9,-25.2 6,-6.6 14.4,-9.9 25.4,-9.9 2.8,0 5.6,0.4 8.5,1.1 2.9,0.7 5.1,1.6 6.8,2.5 v 14.3 c -2.3,-1.7 -4.7,-3 -7.1,-3.9 -2.4,-0.9 -4.9,-1.4 -7.4,-1.4 -5.9,0 -10.6,1.9 -14.3,5.7 -3.6,3.8 -5.4,9 -5.4,15.5 0,6.4 1.7,11.4 5.2,15 3.5,3.6 8.2,5.3 14.2,5.3"
   id="path25" />
	<path
   style="fill:#ffffff"
   inkscape:connector-curvature="0"
   d="m 527.5,180.3 c 1.2,0 2.3,0.1 3.2,0.2 0.9,0.2 1.8,0.4 2.4,0.6 v 15.1 c -0.8,-0.6 -1.9,-1.1 -3.4,-1.6 -1.5,-0.5 -3.3,-0.8 -5.5,-0.8 -3.7,0 -6.8,1.5 -9.3,4.6 -2.5,3.1 -3.8,7.8 -3.8,14.3 v 32.1 h -14.9 v -63.5 h 14.9 v 10 h 0.2 c 1.4,-3.5 3.4,-6.2 6.2,-8.1 2.8,-1.9 6.1,-2.9 10,-2.9"
   id="path27" />
	<path
   style="fill:#ffffff"
   inkscape:connector-curvature="0"
   d="m 533.9,214 c 0,-10.5 3,-18.8 8.9,-25 5.9,-6.1 14.2,-9.2 24.7,-9.2 9.9,0 17.7,3 23.3,8.9 5.6,5.9 8.4,13.9 8.4,23.9 0,10.3 -3,18.5 -8.9,24.6 -5.9,6.1 -14,9.1 -24.2,9.1 -9.8,0 -17.7,-2.9 -23.4,-8.7 -5.9,-5.7 -8.8,-13.6 -8.8,-23.6 m 15.6,-0.5 c 0,6.6 1.5,11.7 4.5,15.2 3,3.5 7.3,5.2 12.9,5.2 5.4,0 9.6,-1.7 12.4,-5.2 2.8,-3.5 4.3,-8.7 4.3,-15.6 0,-6.8 -1.5,-12 -4.4,-15.5 -2.9,-3.5 -7.1,-5.2 -12.4,-5.2 -5.5,0 -9.7,1.8 -12.8,5.5 -3,3.7 -4.5,8.8 -4.5,15.6"
   id="path29" />
	<path
   style="fill:#ffffff"
   inkscape:connector-curvature="0"
   d="m 621.4,198 c 0,2.1 0.7,3.8 2,5 1.4,1.2 4.4,2.7 9,4.6 6,2.4 10.2,5.1 12.6,8.1 2.4,3 3.6,6.6 3.6,10.8 0,6 -2.3,10.8 -6.9,14.4 -4.6,3.6 -10.8,5.4 -18.6,5.4 -2.6,0 -5.5,-0.3 -8.7,-1 -3.2,-0.6 -5.9,-1.5 -8.1,-2.4 v -14.7 c 2.7,1.9 5.6,3.4 8.8,4.5 3.1,1.1 6,1.7 8.5,1.7 3.4,0 5.9,-0.5 7.5,-1.4 1.6,-0.9 2.4,-2.5 2.4,-4.8 0,-2.1 -0.8,-3.8 -2.5,-5.2 -1.7,-1.4 -4.8,-3.1 -9.5,-4.9 -5.5,-2.3 -9.4,-4.9 -11.7,-7.8 -2.3,-2.9 -3.5,-6.6 -3.5,-11 0,-5.7 2.3,-10.4 6.8,-14.1 4.5,-3.7 10.4,-5.5 17.7,-5.5 2.2,0 4.7,0.2 7.5,0.7 2.8,0.5 5.1,1.1 6.9,1.9 v 14.2 c -2,-1.3 -4.3,-2.4 -6.9,-3.4 -2.6,-0.9 -5.3,-1.4 -7.8,-1.4 -2.8,0 -5.1,0.6 -6.6,1.7 -1.7,1.1 -2.5,2.7 -2.5,4.6"
   id="path31" />
	<path
   style="fill:#ffffff"
   inkscape:connector-curvature="0"
   d="m 655.2,214 c 0,-10.5 3,-18.8 8.9,-25 5.9,-6.1 14.2,-9.2 24.7,-9.2 9.9,0 17.7,3 23.3,8.9 5.6,5.9 8.4,13.9 8.4,23.9 0,10.3 -3,18.5 -8.9,24.6 -5.9,6.1 -14,9.1 -24.2,9.1 -9.8,0 -17.7,-2.9 -23.4,-8.7 -5.9,-5.7 -8.8,-13.6 -8.8,-23.6 m 15.5,-0.5 c 0,6.6 1.5,11.7 4.5,15.2 3,3.5 7.3,5.2 12.9,5.2 5.4,0 9.6,-1.7 12.4,-5.2 2.8,-3.5 4.3,-8.7 4.3,-15.6 0,-6.8 -1.5,-12 -4.4,-15.5 -2.9,-3.5 -7.1,-5.2 -12.4,-5.2 -5.5,0 -9.7,1.8 -12.8,5.5 -3,3.7 -4.5,8.8 -4.5,15.6"
   id="path33" />
	<path
   style="fill:#ffffff"
   inkscape:connector-curvature="0"
   d="m 769.8,193.6 v 32.6 c 0,6.8 1.6,11.8 4.7,15.2 3.1,3.4 7.9,5 14.2,5 2.1,0 4.3,-0.2 6.5,-0.7 2.2,-0.5 3.8,-0.9 4.7,-1.5 v -12.4 c -0.9,0.6 -2,1.1 -3.2,1.5 -1.2,0.4 -2.3,0.6 -3.1,0.6 -3,0 -5.3,-0.8 -6.7,-2.4 -1.4,-1.6 -2.1,-4.4 -2.1,-8.3 V 193.5 H 800 v -12.2 h -15.1 v -18.8 l -15,4.6 v 14.3 h -22.3 v -7.7 c 0,-3.8 0.8,-6.7 2.5,-8.7 1.7,-2 4.1,-2.9 7.2,-2.9 1.6,0 3,0.2 4.3,0.6 1.2,0.4 2.1,0.8 2.6,1.1 v -12.9 c -1.1,-0.4 -2.3,-0.6 -3.7,-0.8 -1.4,-0.2 -3,-0.3 -4.8,-0.3 -6.8,0 -12.4,2.1 -16.7,6.4 -4.3,4.3 -6.5,9.7 -6.5,16.4 v 8.8 h -10.6 v 12.2 h 10.6 v 51.3 h 15.1 v -51.3 z"
   id="path35" />
	<polygon
   style="fill:#ffffff"
   points="313.8,175.4 313.8,244.8 299.6,244.8 299.6,156.2 321.6,156.2 347.1,221.9 347.5,221.9 374.4,156.2 395.5,156.2 395.5,244.8 380.1,244.8 380.1,175.4 379.9,175.4 352.4,244.8 342.2,244.8 314,175.4 "
   id="polygon37" />
	<path
   style="fill:#ffffff"
   inkscape:connector-curvature="0"
   d="m 340,117.9 c -5.3,3 -11.3,4.5 -18,4.5 -5.1,0 -9.6,-1.1 -13.6,-3.4 -3.9,-2.2 -7,-5.4 -9.1,-9.5 -2.1,-4.1 -3.2,-8.7 -3.2,-13.8 0,-5.4 1.2,-10.3 3.5,-14.5 2.3,-4.2 5.6,-7.6 9.9,-10 4.3,-2.4 9.1,-3.6 14.5,-3.6 2.7,0 5.4,0.3 8.1,0.8 2.7,0.5 4.9,1.2 6.6,2 v 8 c -4,-2.7 -9.1,-4 -15.3,-4 -3.7,0 -7,0.9 -10,2.7 -3,1.8 -5.3,4.3 -6.9,7.4 -1.6,3.2 -2.4,6.8 -2.4,10.8 0,6.3 1.7,11.3 5,15 3.3,3.7 7.9,5.5 13.7,5.5 3.7,0 7,-0.7 9.8,-2.2 V 99.9 H 321.3 V 93.3 H 340 Z"
   id="path39" />
	<path
   style="fill:#ffffff"
   inkscape:connector-curvature="0"
   d="m 383.1,104.6 h -26.2 c 0.1,3.8 1.3,6.7 3.3,8.8 2.1,2 4.8,3.1 8.2,3.1 4.5,0 8.4,-1.3 11.8,-3.9 v 6.4 c -1.5,1 -3.4,1.9 -5.7,2.5 -2.3,0.6 -4.7,0.9 -7.1,0.9 -5.7,0 -10.2,-1.7 -13.3,-5.1 -3.1,-3.4 -4.7,-8.2 -4.7,-14.4 0,-3.8 0.8,-7.3 2.3,-10.3 1.5,-3.1 3.7,-5.5 6.4,-7.2 2.7,-1.7 5.8,-2.6 9.1,-2.6 4.9,0 8.8,1.6 11.6,4.8 2.8,3.2 4.2,7.6 4.2,13.3 v 3.7 z m -7.3,-5.7 c 0,-3.3 -0.8,-5.8 -2.3,-7.5 -1.5,-1.7 -3.6,-2.6 -6.4,-2.6 -2.5,0 -4.7,0.9 -6.6,2.7 -1.9,1.8 -3,4.3 -3.6,7.4 z"
   id="path41" />
	<path
   style="fill:#ffffff"
   inkscape:connector-curvature="0"
   d="m 411.5,121.1 c -0.7,0.4 -1.6,0.7 -2.9,0.9 -1.2,0.2 -2.3,0.3 -3.3,0.3 -7,0 -10.5,-3.9 -10.5,-11.6 v -21 h -6.4 v -6 h 6.4 v -9 l 7.3,-2.3 v 11.2 h 9.3 v 6 h -9.3 v 19.8 c 0,2.5 0.4,4.3 1.2,5.3 0.8,1 2.2,1.5 4.3,1.5 1.4,0 2.7,-0.4 3.8,-1.2 v 6.1 z"
   id="path43" />
	<path
   style="fill:#ffffff"
   inkscape:connector-curvature="0"
   d="m 447.7,70.3 c 0,1.2 -0.4,2.2 -1.3,3.1 -0.9,0.9 -2,1.3 -3.3,1.3 -1.3,0 -2.4,-0.4 -3.3,-1.3 -0.9,-0.8 -1.3,-1.9 -1.3,-3.2 0,-1.3 0.5,-2.4 1.4,-3.2 0.9,-0.8 2,-1.3 3.2,-1.3 1.2,0 2.3,0.4 3.2,1.3 1,1 1.4,2 1.4,3.3 m -1,51.2 h -7.3 V 83.7 h 7.3 z"
   id="path45" />
	<path
   style="fill:#ffffff"
   inkscape:connector-curvature="0"
   d="m 478.4,121.1 c -0.7,0.4 -1.6,0.7 -2.9,0.9 -1.2,0.2 -2.3,0.3 -3.3,0.3 -7,0 -10.5,-3.9 -10.5,-11.6 v -21 h -6.4 v -6 h 6.4 v -9 l 7.3,-2.3 v 11.2 h 9.3 v 6 H 469 v 19.8 c 0,2.5 0.4,4.3 1.2,5.3 0.8,1 2.2,1.5 4.3,1.5 1.4,0 2.7,-0.4 3.8,-1.2 v 6.1 z"
   id="path47" />
	<path
   style="fill:#ffffff"
   inkscape:connector-curvature="0"
   d="m 526.2,71.7 c -1.2,-0.6 -2.5,-1 -4,-1 -4.1,0 -6.1,2.5 -6.1,7.5 v 5.4 h 8.6 v 6 h -8.6 v 31.8 h -7.3 V 89.7 h -6.4 v -6 h 6.4 v -5.8 c 0,-4 1.1,-7.2 3.4,-9.6 2.3,-2.4 5.4,-3.6 9.4,-3.6 2,0 3.5,0.2 4.7,0.7 v 6.3 z"
   id="path49" />
	<path
   style="fill:#ffffff"
   inkscape:connector-curvature="0"
   d="m 553.1,91 c -0.4,-0.3 -1.2,-0.6 -2.2,-0.9 -1,-0.2 -1.9,-0.4 -2.6,-0.4 -2.6,0 -4.7,1.2 -6.3,3.5 -1.6,2.3 -2.4,5.3 -2.4,9 v 19.3 h -7.3 V 83.7 h 7.3 v 7.6 h 0.2 c 0.8,-2.6 2.1,-4.6 3.8,-6.1 1.7,-1.5 3.7,-2.2 5.9,-2.2 1.5,0 2.7,0.2 3.5,0.5 V 91 Z"
   id="path51" />
	<path
   style="fill:#ffffff"
   inkscape:connector-curvature="0"
   d="m 594.8,102.4 c 0,6.1 -1.8,11 -5.3,14.6 -3.5,3.6 -8.2,5.4 -14,5.4 -5.7,0 -10.3,-1.8 -13.7,-5.3 -3.4,-3.5 -5.1,-8.2 -5.1,-14.1 0,-6.3 1.8,-11.2 5.3,-14.8 3.5,-3.6 8.3,-5.4 14.4,-5.4 5.7,0 10.2,1.7 13.4,5.2 3.4,3.5 5,8.3 5,14.4 m -7.5,0.2 c 0,-4.5 -1,-7.9 -2.9,-10.2 -2,-2.3 -4.7,-3.5 -8.3,-3.5 -3.6,0 -6.5,1.2 -8.6,3.7 -2.1,2.4 -3.1,5.9 -3.1,10.3 0,4.3 1,7.6 3.1,10 2.1,2.4 4.9,3.6 8.6,3.6 3.7,0 6.5,-1.2 8.4,-3.5 1.8,-2.5 2.8,-5.9 2.8,-10.4"
   id="path53" />
	<path
   style="fill:#ffffff"
   inkscape:connector-curvature="0"
   d="m 660.1,121.5 h -7.3 V 100 c 0,-3.9 -0.6,-6.7 -1.8,-8.5 -1.2,-1.8 -3.3,-2.6 -6.2,-2.6 -2.4,0 -4.5,1.1 -6.1,3.3 -1.7,2.2 -2.5,4.9 -2.5,7.9 v 21.4 h -7.3 V 99.3 c 0,-6.9 -2.7,-10.4 -8,-10.4 -2.5,0 -4.6,1.1 -6.2,3.2 -1.6,2.1 -2.4,4.8 -2.4,8.1 v 21.4 H 605 V 83.7 h 7.3 v 5.9 h 0.1 c 2.7,-4.6 6.7,-6.8 11.8,-6.8 2.4,0 4.6,0.7 6.6,2 1.9,1.3 3.3,3.2 4.2,5.6 1.5,-2.6 3.2,-4.5 5.3,-5.8 2.1,-1.2 4.5,-1.9 7.3,-1.9 8.3,0 12.4,5.1 12.4,15.4 v 23.4 z"
   id="path55" />
</g>
</svg>