<?xml version="1.0" encoding="UTF-8" standalone="no"?>
<svg
   xmlns:dc="http://purl.org/dc/elements/1.1/"
   xmlns:cc="http://creativecommons.org/ns#"
   xmlns:rdf="http://www.w3.org/1999/02/22-rdf-syntax-ns#"
   xmlns:svg="http://www.w3.org/2000/svg"
   xmlns="http://www.w3.org/2000/svg"
   xmlns:sodipodi="http://sodipodi.sourceforge.net/DTD/sodipodi-0.dtd"
   xmlns:inkscape="http://www.inkscape.org/namespaces/inkscape"
   height="300px"
   width="300px"
   fill="#000000"
   data-name="Слой 1"
   viewBox="0 0 128 128"
   x="0px"
   y="0px"
   version="1.1"
   id="svg8"
   sodipodi:docname="numbers.svg"
   inkscape:version="0.92.4 (5da689c313, 2019-01-14)">
  <metadata
     id="metadata14">
    <rdf:RDF>
      <cc:Work
         rdf:about="">
        <dc:format>image/svg+xml</dc:format>
        <dc:type
           rdf:resource="http://purl.org/dc/dcmitype/StillImage" />
      </cc:Work>
    </rdf:RDF>
  </metadata>
  <defs
     id="defs12" />
  <sodipodi:namedview
     pagecolor="#ffffff"
     bordercolor="#666666"
     borderopacity="1"
     objecttolerance="10"
     gridtolerance="10"
     guidetolerance="10"
     inkscape:pageopacity="0"
     inkscape:pageshadow="2"
     inkscape:window-width="1683"
     inkscape:window-height="1063"
     id="namedview10"
     showgrid="false"
     inkscape:zoom="1.5733333"
     inkscape:cx="165.85181"
     inkscape:cy="125.92269"
     inkscape:window-x="1075"
     inkscape:window-y="21"
     inkscape:window-maximized="0"
     inkscape:current-layer="svg8" />
  <title
     id="title2">ic_phone_number_hashtag</title>
  <path
     d="M90.13,0H37.87A9.88,9.88,0,0,0,28,9.87V118.13A9.88,9.88,0,0,0,37.87,128H90.13a9.88,9.88,0,0,0,9.87-9.87V9.87A9.88,9.88,0,0,0,90.13,0ZM48,4H80V7a1.94,1.94,0,0,1-2,2H50a1.94,1.94,0,0,1-2-2ZM96,118.13A5.89,5.89,0,0,1,90.13,124H37.87A5.89,5.89,0,0,1,32,118.13V9.87A5.89,5.89,0,0,1,37.87,4H44V7a5.94,5.94,0,0,0,6,6H78a5.94,5.94,0,0,0,6-6V4h6.13A5.89,5.89,0,0,1,96,9.87Z"
     id="path4" />
  <path
     d="m 60.372881,37.823699 h -4.234916 l 0.525424,-4.602712 a 1.0583866,1.0583866 0 1 0 -2.101695,-0.252204 l -0.541186,4.854916 h -8.40678 l 0.572712,-4.602712 a 1.0583866,1.0583866 0 1 0 -2.101695,-0.252204 l -0.572712,4.854916 h -5.206949 a 1.0508475,1.0508475 0 0 0 0,2.101694 h 4.96 l -1.003559,8.40678 h -5.007289 a 1.0508475,1.0508475 0 0 0 0,2.101695 h 4.760339 l -0.556949,4.602712 a 1.0508475,1.0508475 0 0 0 0.924746,1.176949 h 0.126102 a 1.0508475,1.0508475 0 0 0 1.050847,-0.924746 l 0.572712,-4.854915 h 8.40678 l -0.525424,4.602712 a 1.0508475,1.0508475 0 0 0 0.877458,1.176949 h 0.126101 a 1.0508475,1.0508475 0 0 0 1.050848,-0.924746 l 0.572712,-4.854915 h 4.681525 a 1.0508475,1.0508475 0 0 0 0,-2.101695 h -4.434576 l 1.003559,-8.40678 h 4.481865 a 1.0508475,1.0508475 0 0 0 0,-2.101694 z M 52.769999,48.332173 H 44.36322 l 1.003559,-8.40678 h 8.406779 z"
     id="path6"
     inkscape:connector-curvature="0"
     style="stroke-width:0.52542371" />
  <path
     style="stroke-width:0.52542371"
     inkscape:connector-curvature="0"
     id="path827"
     d="m 91.016953,37.823699 h -4.234916 l 0.525424,-4.602712 A 1.0583866,1.0583866 0 1 0 85.205766,32.968783 L 84.66458,37.823699 H 76.2578 l 0.572712,-4.602712 a 1.0583866,1.0583866 0 1 0 -2.101695,-0.252204 l -0.572712,4.854916 h -5.206949 a 1.0508475,1.0508475 0 0 0 0,2.101694 h 4.96 l -1.003559,8.40678 h -5.007289 a 1.0508475,1.0508475 0 0 0 0,2.101695 h 4.760339 l -0.556949,4.602712 a 1.0508475,1.0508475 0 0 0 0.924746,1.176949 h 0.126102 a 1.0508475,1.0508475 0 0 0 1.050847,-0.924746 l 0.572712,-4.854915 h 8.40678 l -0.525424,4.602712 a 1.0508475,1.0508475 0 0 0 0.877458,1.176949 h 0.126101 a 1.0508475,1.0508475 0 0 0 1.050848,-0.924746 l 0.572712,-4.854915 h 4.681525 a 1.0508475,1.0508475 0 0 0 0,-2.101695 h -4.434576 l 1.003559,-8.40678 h 4.481865 a 1.0508475,1.0508475 0 0 0 0,-2.101694 z m -7.602882,10.508474 h -8.406779 l 1.003559,-8.40678 h 8.406779 z" />
  <path
     d="m 60.372881,78.772853 h -4.234916 l 0.525424,-4.602712 a 1.0583866,1.0583866 0 1 0 -2.101695,-0.252204 l -0.541186,4.854916 h -8.40678 l 0.572712,-4.602712 a 1.0583866,1.0583866 0 1 0 -2.101695,-0.252204 l -0.572712,4.854916 h -5.206949 a 1.0508475,1.0508475 0 0 0 0,2.101694 h 4.96 l -1.003559,8.40678 h -5.007289 a 1.0508475,1.0508475 0 0 0 0,2.101695 h 4.760339 l -0.556949,4.602712 a 1.0508475,1.0508475 0 0 0 0.924746,1.176949 h 0.126102 a 1.0508475,1.0508475 0 0 0 1.050847,-0.924746 l 0.572712,-4.854915 h 8.40678 l -0.525424,4.602712 a 1.0508475,1.0508475 0 0 0 0.877458,1.176949 h 0.126101 a 1.0508475,1.0508475 0 0 0 1.050848,-0.924746 l 0.572712,-4.854915 h 4.681525 a 1.0508475,1.0508475 0 0 0 0,-2.101695 h -4.434576 l 1.003559,-8.40678 h 4.481865 a 1.0508475,1.0508475 0 0 0 0,-2.101694 z M 52.769999,89.281327 H 44.36322 l 1.003559,-8.40678 h 8.406779 z"
     id="path829"
     inkscape:connector-curvature="0"
     style="stroke-width:0.52542371" />
  <path
     style="stroke-width:0.52542371"
     inkscape:connector-curvature="0"
     id="path831"
     d="m 91.016953,78.772853 h -4.234916 l 0.525424,-4.602712 A 1.0583866,1.0583866 0 1 0 85.205766,73.917937 L 84.66458,78.772853 H 76.2578 l 0.572712,-4.602712 a 1.0583866,1.0583866 0 1 0 -2.101695,-0.252204 l -0.572712,4.854916 h -5.206949 a 1.0508475,1.0508475 0 0 0 0,2.101694 h 4.96 l -1.003559,8.40678 h -5.007289 a 1.0508475,1.0508475 0 0 0 0,2.101695 h 4.760339 l -0.556949,4.602712 a 1.0508475,1.0508475 0 0 0 0.924746,1.176949 h 0.126102 a 1.0508475,1.0508475 0 0 0 1.050847,-0.924746 l 0.572712,-4.854915 h 8.40678 l -0.525424,4.602712 a 1.0508475,1.0508475 0 0 0 0.877458,1.176949 h 0.126101 a 1.0508475,1.0508475 0 0 0 1.050848,-0.924746 l 0.572712,-4.854915 h 4.681525 a 1.0508475,1.0508475 0 0 0 0,-2.101695 h -4.434576 l 1.003559,-8.40678 h 4.481865 a 1.0508475,1.0508475 0 0 0 0,-2.101694 z m -7.602882,10.508474 h -8.406779 l 1.003559,-8.40678 h 8.406779 z" />
</svg>
