<svg height="300px" width="300px" fill="#000000" xmlns="http://www.w3.org/2000/svg" xmlns:xlink="http://www.w3.org/1999/xlink" version="1.1" x="0px" y="0px" viewBox="0 0 100 100" style="enable-background:new 0 0 100 100;" xml:space="preserve"><g><path d="M85.7,39.3c0-3.2-2.3-5.8-5.4-6.4c-0.8-3.8-2.3-7.4-4.4-10.6c1.8-2.5,1.5-6-0.7-8.3c-2.3-2.3-5.8-2.5-8.3-0.7   c-3.2-2.1-6.8-3.6-10.6-4.4c-0.5-3-3.2-5.4-6.4-5.4s-5.8,2.3-6.4,5.4c-3.8,0.8-7.4,2.3-10.6,4.4c-2.5-1.8-6-1.5-8.3,0.7   c-2.3,2.3-2.5,5.8-0.7,8.3c-2.1,3.2-3.6,6.8-4.4,10.6c-3,0.5-5.4,3.2-5.4,6.4c0,3.2,2.3,5.8,5.4,6.4c1.1,5.2,3.5,10.1,7,14.1   c0.5,0.6,1.5,0.7,2.1,0.1c0.6-0.5,0.7-1.5,0.1-2.1c-3.1-3.5-5.2-7.7-6.3-12.3c0,0,0,0,0.1,0c0.3-0.1,0.6-0.2,0.8-0.3   c0.1,0,0.1-0.1,0.2-0.1c0.3-0.1,0.5-0.3,0.8-0.5c0,0,0,0,0,0c0.2-0.2,0.5-0.4,0.7-0.6c0,0,0.1-0.1,0.1-0.1c0.2-0.2,0.4-0.4,0.6-0.7   c0,0,0.1-0.1,0.1-0.1c0.2-0.2,0.3-0.5,0.5-0.8c0,0,0,0,0,0c0.1-0.3,0.3-0.6,0.4-0.8c0-0.1,0-0.1,0.1-0.2c0.1-0.3,0.2-0.6,0.2-0.9   c0-0.1,0-0.1,0-0.2c0-0.3,0.1-0.6,0.1-1c0-0.3,0-0.7-0.1-1c0-0.1,0-0.1,0-0.2c-0.1-0.3-0.1-0.6-0.2-0.9c0-0.1,0-0.1-0.1-0.2   c-0.1-0.3-0.2-0.6-0.4-0.8c0,0,0,0,0,0c-0.1-0.3-0.3-0.5-0.5-0.8c0,0-0.1-0.1-0.1-0.1c-0.2-0.2-0.4-0.5-0.6-0.7   c0,0-0.1-0.1-0.1-0.1c-0.2-0.2-0.5-0.4-0.7-0.6c0,0,0,0,0,0c-0.2-0.2-0.5-0.3-0.8-0.5c0,0-0.1-0.1-0.1-0.1   c-0.3-0.1-0.5-0.2-0.8-0.3c0,0,0,0-0.1,0c0.7-3.1,1.9-6.1,3.6-8.8c0.2,0.1,0.3,0.1,0.5,0.2c0.1,0.1,0.2,0.1,0.4,0.2   c0.3,0.1,0.6,0.2,0.9,0.2c0.1,0,0.1,0,0.2,0.1c0.4,0.1,0.7,0.1,1.1,0.1c0,0,0,0,0,0c0.3,0,0.5,0,0.8-0.1c0.1,0,0.1,0,0.2,0   c0.3,0,0.6-0.1,0.9-0.2c0,0,0.1,0,0.1,0c0.3-0.1,0.5-0.2,0.8-0.3c0.1,0,0.1,0,0.2-0.1c0.3-0.1,0.5-0.3,0.8-0.5   c0.1,0,0.1-0.1,0.2-0.1c0.3-0.2,0.5-0.4,0.7-0.6c0.2-0.2,0.4-0.5,0.6-0.7c0,0,0.1-0.1,0.1-0.1c0.2-0.3,0.3-0.5,0.5-0.8   c0-0.1,0-0.1,0.1-0.2c0.1-0.3,0.3-0.6,0.3-0.9c0,0,0,0,0,0c0.1-0.3,0.2-0.6,0.2-0.9c0-0.1,0-0.1,0-0.2c0-0.3,0.1-0.6,0.1-0.9   c0-0.1,0-0.1,0-0.2c0-0.3,0-0.6-0.1-0.9c0,0,0,0,0,0c-0.1-0.3-0.1-0.6-0.2-0.8c0-0.1,0-0.1-0.1-0.2c-0.1-0.3-0.2-0.5-0.4-0.8   c0,0,0,0,0-0.1c2.7-1.7,5.6-2.9,8.8-3.6c0,0,0,0,0,0.1c0.1,0.3,0.2,0.6,0.3,0.8c0,0,0,0.1,0.1,0.1c0.1,0.3,0.3,0.5,0.5,0.8   c0,0,0,0,0,0c0.2,0.2,0.4,0.5,0.6,0.7c0,0,0.1,0.1,0.1,0.1c0.2,0.2,0.4,0.4,0.7,0.6c0,0,0.1,0.1,0.1,0.1c0.2,0.2,0.5,0.3,0.8,0.5   c0,0,0,0,0,0c0.3,0.1,0.6,0.3,0.8,0.4c0.1,0,0.1,0,0.2,0.1c0.3,0.1,0.6,0.2,0.9,0.2c0.1,0,0.1,0,0.2,0c0.3,0,0.6,0.1,1,0.1   s0.7,0,1-0.1c0.1,0,0.1,0,0.2,0c0.3-0.1,0.6-0.1,0.9-0.2c0.1,0,0.1,0,0.2-0.1c0.3-0.1,0.6-0.2,0.8-0.4c0,0,0,0,0,0   c0.3-0.1,0.5-0.3,0.8-0.5c0,0,0.1-0.1,0.1-0.1c0.2-0.2,0.4-0.4,0.6-0.6c0,0,0.1-0.1,0.1-0.1c0.2-0.2,0.4-0.4,0.6-0.7c0,0,0,0,0-0.1   c0.2-0.2,0.3-0.5,0.4-0.7c0-0.1,0.1-0.1,0.1-0.2c0.1-0.3,0.2-0.5,0.3-0.8c0,0,0-0.1,0-0.1c3.1,0.7,6.1,1.9,8.8,3.6c0,0,0,0,0,0.1   c-0.1,0.3-0.3,0.5-0.4,0.8c0,0.1,0,0.1-0.1,0.2c-0.1,0.3-0.2,0.6-0.2,0.9c0,0,0,0,0,0c-0.1,0.3-0.1,0.6-0.1,0.9c0,0.1,0,0.1,0,0.2   c0,0.3,0,0.6,0.1,0.9c0,0.1,0,0.1,0,0.2c0,0.3,0.1,0.6,0.2,0.9c0,0,0,0,0,0c0.1,0.3,0.2,0.6,0.3,0.9c0,0.1,0,0.1,0.1,0.2   c0.1,0.3,0.3,0.5,0.5,0.8c0,0,0.1,0.1,0.1,0.1c0.2,0.3,0.4,0.5,0.6,0.7c0.2,0.2,0.5,0.4,0.7,0.6c0.1,0,0.1,0.1,0.2,0.1   c0.3,0.2,0.5,0.3,0.8,0.5c0,0,0.1,0,0.1,0.1c0.3,0.1,0.5,0.2,0.8,0.3c0,0,0.1,0,0.1,0c0.3,0.1,0.6,0.2,0.9,0.2c0.1,0,0.1,0,0.2,0   c0.3,0,0.5,0.1,0.8,0.1c0,0,0,0,0,0c0.4,0,0.7,0,1.1-0.1c0.1,0,0.2-0.1,0.3-0.1c0.3-0.1,0.5-0.1,0.8-0.2c0.1,0,0.3-0.1,0.4-0.2   c0.1-0.1,0.3-0.1,0.4-0.2c1.7,2.7,2.9,5.6,3.6,8.8c0,0,0,0-0.1,0c-0.3,0.1-0.6,0.2-0.8,0.3c-0.1,0-0.1,0.1-0.2,0.1   c-0.3,0.1-0.5,0.3-0.8,0.5c0,0,0,0,0,0c-0.2,0.2-0.5,0.4-0.7,0.6c0,0-0.1,0.1-0.1,0.1c-0.2,0.2-0.4,0.4-0.6,0.7   c0,0-0.1,0.1-0.1,0.1c-0.2,0.2-0.3,0.5-0.5,0.8c0,0,0,0,0,0c-0.1,0.3-0.3,0.6-0.4,0.8c0,0.1,0,0.1-0.1,0.2   c-0.1,0.3-0.2,0.6-0.2,0.9c0,0.1,0,0.1,0,0.2c0,0.3-0.1,0.6-0.1,1s0,0.7,0.1,1c0,0.1,0,0.1,0,0.2c0.1,0.3,0.1,0.6,0.2,0.9   c0,0.1,0,0.1,0.1,0.2c0.1,0.3,0.2,0.6,0.4,0.8c0,0,0,0,0,0c0.1,0.3,0.3,0.5,0.5,0.8c0,0,0.1,0.1,0.1,0.1c0.2,0.2,0.4,0.4,0.6,0.6   c0,0,0.1,0.1,0.1,0.1c0.2,0.2,0.4,0.4,0.7,0.6c0,0,0,0,0.1,0c0.2,0.2,0.5,0.3,0.7,0.4c0.1,0,0.1,0.1,0.2,0.1   c0.3,0.1,0.5,0.2,0.8,0.3c0,0,0.1,0,0.1,0c-1,4.5-3.2,8.8-6.3,12.3c-0.5,0.6-0.5,1.6,0.1,2.1c0.3,0.2,0.6,0.4,1,0.4   c0.4,0,0.8-0.2,1.1-0.5c3.5-4,5.9-8.9,7-14.1C83.4,45.1,85.7,42.5,85.7,39.3z M17.3,39.3c0-1.9,1.5-3.4,3.4-3.5c0.1,0,0.1,0,0.2,0   c1.9,0.1,3.4,1.6,3.4,3.5c0,1.9-1.5,3.4-3.4,3.5c0,0,0,0,0,0c-0.1,0-0.1,0-0.2,0C18.8,42.7,17.3,41.2,17.3,39.3z M26.9,16.1   c1.3-1.3,3.6-1.3,4.9,0c0,0,0.1,0.1,0.1,0.1c1.3,1.4,1.3,3.5-0.1,4.8c-1.3,1.3-3.5,1.4-4.8,0.1c0,0-0.1-0.1-0.1-0.1   C25.5,19.6,25.5,17.5,26.9,16.1z M50,6.5c1.9,0,3.4,1.5,3.5,3.4c0,0.1,0,0.1,0,0.2c-0.1,1.9-1.6,3.4-3.5,3.4s-3.4-1.5-3.5-3.4   c0,0,0,0,0,0c0-0.1,0-0.1,0-0.2C46.6,8.1,48.1,6.5,50,6.5z M73.1,16.1c1.3,1.3,1.4,3.5,0,4.9c0,0-0.1,0.1-0.1,0.1   c-1.4,1.3-3.5,1.3-4.8-0.1c-0.2-0.2-0.3-0.3-0.4-0.5c-0.9-1.3-0.8-3.1,0.4-4.3c0,0,0,0,0,0c0,0,0.1-0.1,0.1-0.1   C69.6,14.8,71.8,14.8,73.1,16.1z M79.3,42.7c-0.1,0-0.1,0-0.2,0c-1.9-0.1-3.4-1.6-3.4-3.5c0-0.2,0-0.5,0.1-0.7   c0.3-1.6,1.7-2.7,3.3-2.8c0,0,0.1,0,0.2,0c1.9,0,3.4,1.6,3.4,3.5C82.7,41.2,81.2,42.7,79.3,42.7z"/><path d="M58.4,39.6c0-4.6-3.8-8.4-8.4-8.4s-8.4,3.8-8.4,8.4s3.8,8.4,8.4,8.4S58.4,44.3,58.4,39.6z M44.6,39.6c0-3,2.4-5.4,5.4-5.4   s5.4,2.4,5.4,5.4S53,45.1,50,45.1S44.6,42.6,44.6,39.6z"/><path d="M62.2,51.1l-11.9-1.2c-0.1,0-0.2,0-0.3,0l-0.1,0c-0.1,0-0.2,0-0.4,0l-11.8,1.2c-0.4,0-0.8,0.3-1,0.6   c-0.3,0.3-0.4,0.7-0.3,1.2l3.2,19.4c0.1,0.7,0.7,1.3,1.5,1.3h2.6L45.1,95c0.1,0.8,0.7,1.4,1.5,1.4h7c0.8,0,1.4-0.6,1.5-1.4   l1.4-21.5h2.5c0.7,0,1.4-0.5,1.5-1.3l3.2-19.4c0.1-0.4,0-0.8-0.3-1.2S62.6,51.2,62.2,51.1z M57.6,70.5H55c-0.8,0-1.4,0.6-1.5,1.4   l-1.4,21.5H48l-1.4-21.5c-0.1-0.8-0.7-1.4-1.5-1.4h-2.7l-2.8-16.6l9.9-1c0.1,0,0.2,0,0.3,0l0.3,0l10.2,1L57.6,70.5z"/></g></svg>