<?xml version="1.0" standalone="no"?>
<!DOCTYPE svg PUBLIC "-//W3C//DTD SVG 20010904//EN"
 "http://www.w3.org/TR/2001/REC-SVG-20010904/DTD/svg10.dtd">
<svg version="1.0" xmlns="http://www.w3.org/2000/svg"
 width="872.000000pt" height="872.000000pt" viewBox="0 0 872.000000 872.000000"
 preserveAspectRatio="xMidYMid meet">
<metadata>
Created by potrace 1.14, written by Peter Selinger 2001-2017
</metadata>
<g transform="translate(0.000000,872.000000) scale(0.100000,-0.100000)"
fill="#000000" stroke="none">
<path d="M3045 8714 c-544 -21 -874 -65 -1131 -150 -523 -173 -1028 -625
-1284 -1149 -105 -214 -163 -433 -199 -750 -37 -319 -42 -483 -48 -1473 l-6
-974 80 7 c92 8 175 -9 257 -53 85 -45 136 -105 199 -232 31 -63 77 -141 102
-173 167 -210 445 -259 599 -104 79 79 108 159 113 312 4 109 0 144 -42 385
-44 252 -62 354 -105 605 -37 218 -150 863 -175 1005 -51 283 -44 365 41 481
156 212 483 227 666 31 83 -89 88 -106 173 -602 28 -167 57 -332 105 -610 76
-437 74 -430 110 -430 10 0 22 6 29 13 6 8 17 140 26 338 14 304 47 978 61
1259 7 145 32 233 90 317 130 189 399 274 630 199 129 -42 233 -123 303 -239
13 -21 130 -358 260 -750 235 -707 237 -712 270 -729 35 -17 78 -10 100 16 6
7 27 71 46 142 57 205 155 561 180 654 204 744 206 751 305 850 61 61 145 109
235 136 69 20 223 23 298 5 176 -42 333 -186 381 -351 17 -57 20 -88 61 -625
14 -181 32 -420 40 -530 9 -110 24 -318 35 -462 37 -512 53 -688 63 -700 5 -7
18 -13 28 -13 37 0 46 38 58 235 7 105 21 305 31 445 24 316 45 602 70 965 11
154 22 300 26 325 18 132 102 243 232 307 75 37 78 38 187 37 191 -2 627 -102
919 -211 361 -135 626 -299 845 -521 l114 -116 -7 205 c-29 865 -113 1220
-385 1624 -232 346 -526 609 -890 794 -268 137 -572 205 -1071 242 -141 11
-2795 21 -3025 13z"/>
<path d="M8470 5785 c0 -5 10 -21 21 -35 13 -17 17 -18 10 -5 -17 33 -31 51
-31 40z"/>
<path d="M6978 5754 c-48 -26 -60 -64 -73 -249 -56 -745 -56 -716 9 -756 40
-24 80 -24 212 2 335 64 597 204 670 358 59 122 -45 292 -268 441 -111 75
-187 113 -340 174 -124 49 -166 55 -210 30z"/>
<path d="M8544 5660 c40 -75 92 -223 105 -301 8 -53 9 -51 10 37 1 92 1 92
-46 175 -26 46 -51 89 -55 94 -42 52 -45 51 -14 -5z"/>
<path d="M8650 5051 c0 -87 -90 -307 -175 -426 -105 -149 -338 -337 -541 -439
-263 -131 -625 -228 -974 -262 -82 -7 -113 -19 -149 -57 -27 -29 -29 -49 -60
-447 -12 -145 -27 -273 -35 -297 -64 -182 -275 -301 -468 -264 -35 7 -83 21
-107 32 -82 36 -121 16 -121 -62 0 -52 -20 -130 -45 -178 -26 -52 -104 -122
-171 -156 -56 -28 -66 -30 -179 -30 -108 0 -125 3 -175 26 -77 36 -150 106
-185 176 -27 54 -30 75 -51 318 -12 143 -27 332 -34 420 -6 88 -19 266 -30
395 -11 129 -24 305 -30 390 -24 343 -51 635 -62 647 -14 17 -53 17 -67 -1
-13 -15 -42 -117 -213 -741 -39 -144 -52 -178 -95 -242 -115 -174 -357 -264
-573 -214 -134 32 -276 134 -335 243 -17 29 -102 269 -190 532 -136 408 -163
480 -182 487 -15 6 -28 3 -43 -9 -24 -20 -26 -47 -60 -777 -27 -590 -58 -1208
-65 -1277 -10 -117 -102 -240 -223 -296 -51 -24 -69 -27 -167 -27 -99 0 -116
3 -168 27 -113 53 -177 123 -212 227 -16 49 -17 78 -11 245 8 219 3 236 -60
236 -29 0 -42 -7 -72 -42 -212 -249 -487 -395 -805 -429 -308 -33 -687 74
-931 264 -237 185 -374 366 -492 647 l-24 55 0 -198 c0 -178 2 -202 20 -237
11 -22 20 -45 20 -53 0 -7 20 -53 44 -100 24 -48 40 -84 35 -81 -19 12 -7 -17
25 -59 19 -25 42 -59 51 -76 16 -32 29 -43 19 -16 -12 29 5 14 37 -32 18 -27
48 -62 66 -79 31 -29 35 -40 53 -145 50 -293 104 -471 201 -660 184 -361 450
-658 792 -886 228 -153 446 -246 709 -303 106 -23 144 -44 192 -104 l31 -38 0
-302 c1 -165 2 -307 3 -314 1 -7 14 -24 28 -37 21 -19 38 -25 75 -25 l48 0
296 292 c208 206 317 305 363 334 66 40 163 77 232 89 19 3 559 7 1200 9 1191
5 1402 10 1730 47 494 54 795 170 1170 447 105 78 352 328 438 443 188 253
303 489 365 754 72 303 98 628 113 1414 3 189 10 338 14 331 7 -12 34 18 76
85 10 17 36 52 56 78 21 27 38 53 38 59 0 5 7 26 16 45 12 24 19 31 25 21 4
-7 8 132 9 310 0 177 -2 322 -5 322 -3 0 -5 -13 -5 -29z"/>
</g>
</svg>
